<mxfile host="app.diagrams.net" modified="2023-05-07T04:37:53.674Z" agent="Mozilla/5.0 (Windows NT 10.0; Win64; x64; rv:109.0) Gecko/20100101 Firefox/112.0" etag="fD18MGOoCpn08YwK2EK3" version="21.2.9" type="github">
  <diagram name="Page-1" id="VJtyxQ2RTHAD36A3p6ny">
    <mxGraphModel dx="779" dy="470" grid="1" gridSize="10" guides="1" tooltips="1" connect="1" arrows="1" fold="1" page="1" pageScale="1" pageWidth="850" pageHeight="1100" math="0" shadow="0">
      <root>
        <mxCell id="0" />
        <mxCell id="1" parent="0" />
        <mxCell id="R2AB_OP7W7jM0Jj_TJfU-1" value="" style="shape=image;verticalLabelPosition=bottom;labelBackgroundColor=default;verticalAlign=top;aspect=fixed;imageAspect=0;image=https://upload.wikimedia.org/wikipedia/commons/thumb/d/dd/MediaWiki-2020-logo.svg/1200px-MediaWiki-2020-logo.svg.png;" parent="1" vertex="1">
          <mxGeometry x="100" y="74.45" width="118" height="131.11" as="geometry" />
        </mxCell>
        <mxCell id="R2AB_OP7W7jM0Jj_TJfU-2" value="Analyse mode" style="rounded=0;whiteSpace=wrap;html=1;fillColor=#ffe6cc;strokeColor=#d79b00;sketch=1;curveFitting=1;jiggle=2;" parent="1" vertex="1">
          <mxGeometry x="270" y="110" width="120" height="60" as="geometry" />
        </mxCell>
        <mxCell id="R2AB_OP7W7jM0Jj_TJfU-3" value="Script mode" style="rounded=0;whiteSpace=wrap;html=1;fillColor=#dae8fc;strokeColor=#6c8ebf;sketch=1;curveFitting=1;jiggle=2;" parent="1" vertex="1">
          <mxGeometry x="560" y="90" width="120" height="60" as="geometry" />
        </mxCell>
        <mxCell id="R2AB_OP7W7jM0Jj_TJfU-4" value="Archive mode" style="rounded=0;whiteSpace=wrap;html=1;fillColor=#dae8fc;strokeColor=#6c8ebf;sketch=1;curveFitting=1;jiggle=2;" parent="1" vertex="1">
          <mxGeometry x="560" y="210" width="120" height="60" as="geometry" />
        </mxCell>
        <mxCell id="R2AB_OP7W7jM0Jj_TJfU-5" value="output;json" style="ellipse;whiteSpace=wrap;html=1;aspect=fixed;fillColor=#fff2cc;strokeColor=#d6b656;sketch=1;curveFitting=1;jiggle=2;" parent="1" vertex="1">
          <mxGeometry x="440" y="130" width="80" height="80" as="geometry" />
        </mxCell>
        <mxCell id="R2AB_OP7W7jM0Jj_TJfU-7" value="" style="endArrow=classic;html=1;rounded=0;exitX=1;exitY=0.5;exitDx=0;exitDy=0;entryX=0.03;entryY=0.358;entryDx=0;entryDy=0;sketch=1;curveFitting=1;jiggle=2;entryPerimeter=0;" parent="1" source="R2AB_OP7W7jM0Jj_TJfU-2" target="R2AB_OP7W7jM0Jj_TJfU-5" edge="1">
          <mxGeometry width="50" height="50" relative="1" as="geometry">
            <mxPoint x="400" y="240" as="sourcePoint" />
            <mxPoint x="450" y="190" as="targetPoint" />
          </mxGeometry>
        </mxCell>
        <mxCell id="R2AB_OP7W7jM0Jj_TJfU-11" value="Archive.org" style="ellipse;whiteSpace=wrap;html=1;aspect=fixed;fillColor=#e1d5e7;strokeColor=#9673a6;sketch=1;curveFitting=1;jiggle=2;" parent="1" vertex="1">
          <mxGeometry x="720" y="200" width="80" height="80" as="geometry" />
        </mxCell>
        <mxCell id="R2AB_OP7W7jM0Jj_TJfU-12" value="&lt;div&gt;Download&lt;/div&gt;&lt;div&gt;script&lt;/div&gt;" style="ellipse;whiteSpace=wrap;html=1;aspect=fixed;fillColor=#e1d5e7;strokeColor=#9673a6;sketch=1;curveFitting=1;jiggle=2;" parent="1" vertex="1">
          <mxGeometry x="720" y="80" width="80" height="80" as="geometry" />
        </mxCell>
        <mxCell id="R2AB_OP7W7jM0Jj_TJfU-13" value="" style="endArrow=classic;html=1;rounded=0;exitX=1;exitY=0.5;exitDx=0;exitDy=0;sketch=1;curveFitting=1;jiggle=2;" parent="1" source="R2AB_OP7W7jM0Jj_TJfU-3" target="R2AB_OP7W7jM0Jj_TJfU-12" edge="1">
          <mxGeometry width="50" height="50" relative="1" as="geometry">
            <mxPoint x="400" y="280" as="sourcePoint" />
            <mxPoint x="450" y="230" as="targetPoint" />
          </mxGeometry>
        </mxCell>
        <mxCell id="R2AB_OP7W7jM0Jj_TJfU-16" value="" style="endArrow=classic;html=1;rounded=0;entryX=0;entryY=0.5;entryDx=0;entryDy=0;sketch=1;curveFitting=1;jiggle=2;" parent="1" source="R2AB_OP7W7jM0Jj_TJfU-4" target="R2AB_OP7W7jM0Jj_TJfU-11" edge="1">
          <mxGeometry width="50" height="50" relative="1" as="geometry">
            <mxPoint x="400" y="280" as="sourcePoint" />
            <mxPoint x="450" y="230" as="targetPoint" />
          </mxGeometry>
        </mxCell>
        <mxCell id="R2AB_OP7W7jM0Jj_TJfU-18" value="" style="endArrow=none;html=1;rounded=0;exitX=1;exitY=0.5;exitDx=0;exitDy=0;" parent="1" source="R2AB_OP7W7jM0Jj_TJfU-1" target="R2AB_OP7W7jM0Jj_TJfU-2" edge="1">
          <mxGeometry width="50" height="50" relative="1" as="geometry">
            <mxPoint x="320" y="280" as="sourcePoint" />
            <mxPoint x="370" y="230" as="targetPoint" />
          </mxGeometry>
        </mxCell>
        <mxCell id="clHFltTYHhdOgaU5KyVm-5" style="edgeStyle=orthogonalEdgeStyle;rounded=0;orthogonalLoop=1;jettySize=auto;html=1;exitX=0;exitY=0.5;exitDx=0;exitDy=0;sketch=1;curveFitting=1;jiggle=2;" edge="1" parent="1" source="clHFltTYHhdOgaU5KyVm-1" target="R2AB_OP7W7jM0Jj_TJfU-1">
          <mxGeometry relative="1" as="geometry" />
        </mxCell>
        <mxCell id="clHFltTYHhdOgaU5KyVm-1" value="Publish mode" style="rounded=0;whiteSpace=wrap;html=1;fillColor=#dae8fc;strokeColor=#6c8ebf;sketch=1;curveFitting=1;jiggle=2;" vertex="1" parent="1">
          <mxGeometry x="270" y="210" width="120" height="60" as="geometry" />
        </mxCell>
        <mxCell id="clHFltTYHhdOgaU5KyVm-3" value="" style="group" vertex="1" connectable="0" parent="1">
          <mxGeometry x="80" y="300" width="260" height="60" as="geometry" />
        </mxCell>
        <mxCell id="B_pbxZE5xbWOFdOlRSbC-5" value="" style="rounded=1;whiteSpace=wrap;html=1;glass=0;sketch=1;curveFitting=1;jiggle=2;" parent="clHFltTYHhdOgaU5KyVm-3" vertex="1">
          <mxGeometry width="260" height="60" as="geometry" />
        </mxCell>
        <mxCell id="B_pbxZE5xbWOFdOlRSbC-2" value="Wikiref" style="rounded=0;whiteSpace=wrap;html=1;sketch=1;curveFitting=1;jiggle=2;" parent="clHFltTYHhdOgaU5KyVm-3" vertex="1">
          <mxGeometry x="80" y="20" width="80" height="20" as="geometry" />
        </mxCell>
        <mxCell id="B_pbxZE5xbWOFdOlRSbC-3" value="&lt;div style=&quot;font-size: 11px;&quot;&gt;&lt;font style=&quot;font-size: 11px;&quot;&gt;Input&lt;/font&gt;&lt;/div&gt;&lt;div style=&quot;font-size: 11px;&quot;&gt;&lt;font style=&quot;font-size: 11px;&quot;&gt;Output&lt;font style=&quot;font-size: 11px;&quot;&gt;&lt;br&gt;&lt;/font&gt;&lt;/font&gt;&lt;/div&gt;" style="ellipse;whiteSpace=wrap;html=1;aspect=fixed;fontSize=8;sketch=1;curveFitting=1;jiggle=2;" parent="clHFltTYHhdOgaU5KyVm-3" vertex="1">
          <mxGeometry x="190" y="7.5" width="45" height="45" as="geometry" />
        </mxCell>
        <mxCell id="B_pbxZE5xbWOFdOlRSbC-4" value="Caption:" style="text;html=1;align=center;verticalAlign=middle;resizable=0;points=[];autosize=1;strokeColor=none;fillColor=none;sketch=1;curveFitting=1;jiggle=2;" parent="clHFltTYHhdOgaU5KyVm-3" vertex="1">
          <mxGeometry y="15" width="70" height="30" as="geometry" />
        </mxCell>
        <mxCell id="clHFltTYHhdOgaU5KyVm-4" value="" style="endArrow=classic;html=1;rounded=0;entryX=1;entryY=0.5;entryDx=0;entryDy=0;sketch=1;curveFitting=1;jiggle=2;" edge="1" parent="1" source="R2AB_OP7W7jM0Jj_TJfU-5" target="clHFltTYHhdOgaU5KyVm-1">
          <mxGeometry width="50" height="50" relative="1" as="geometry">
            <mxPoint x="518" y="178" as="sourcePoint" />
            <mxPoint x="570" y="210" as="targetPoint" />
          </mxGeometry>
        </mxCell>
        <mxCell id="clHFltTYHhdOgaU5KyVm-6" value="" style="endArrow=classic;html=1;rounded=0;entryX=0.018;entryY=0.566;entryDx=0;entryDy=0;sketch=1;curveFitting=1;jiggle=2;exitX=0.717;exitY=0.966;exitDx=0;exitDy=0;exitPerimeter=0;entryPerimeter=0;" edge="1" parent="1" source="R2AB_OP7W7jM0Jj_TJfU-5" target="R2AB_OP7W7jM0Jj_TJfU-4">
          <mxGeometry width="50" height="50" relative="1" as="geometry">
            <mxPoint x="458" y="205" as="sourcePoint" />
            <mxPoint x="400" y="250" as="targetPoint" />
          </mxGeometry>
        </mxCell>
        <mxCell id="clHFltTYHhdOgaU5KyVm-7" value="" style="endArrow=classic;html=1;rounded=0;entryX=0;entryY=0.5;entryDx=0;entryDy=0;sketch=1;curveFitting=1;jiggle=2;exitX=0.832;exitY=0.122;exitDx=0;exitDy=0;exitPerimeter=0;" edge="1" parent="1" source="R2AB_OP7W7jM0Jj_TJfU-5" target="R2AB_OP7W7jM0Jj_TJfU-3">
          <mxGeometry width="50" height="50" relative="1" as="geometry">
            <mxPoint x="468" y="215" as="sourcePoint" />
            <mxPoint x="410" y="260" as="targetPoint" />
          </mxGeometry>
        </mxCell>
      </root>
    </mxGraphModel>
  </diagram>
</mxfile>
